<?xml version="1.0" encoding="UTF-8" standalone="no"?>
<!-- Created with Inkscape (http://www.inkscape.org/) -->

<svg
   width="163.80992mm"
   height="166.48366mm"
   viewBox="0 0 163.80993 166.48366"
   version="1.1"
   id="svg1"
   inkscape:version="1.4.2 (ebf0e940d0, 2025-05-08)"
   sodipodi:docname="candycane.svg"
   xmlns:inkscape="http://www.inkscape.org/namespaces/inkscape"
   xmlns:sodipodi="http://sodipodi.sourceforge.net/DTD/sodipodi-0.dtd"
   xmlns="http://www.w3.org/2000/svg"
   xmlns:svg="http://www.w3.org/2000/svg">
  <sodipodi:namedview
     id="namedview1"
     pagecolor="#505050"
     bordercolor="#eeeeee"
     borderopacity="1"
     inkscape:showpageshadow="0"
     inkscape:pageopacity="0"
     inkscape:pagecheckerboard="0"
     inkscape:deskcolor="#505050"
     inkscape:document-units="mm"
     inkscape:zoom="0.54236803"
     inkscape:cx="263.65861"
     inkscape:cy="59.000528"
     inkscape:window-width="1920"
     inkscape:window-height="1053"
     inkscape:window-x="0"
     inkscape:window-y="0"
     inkscape:window-maximized="0"
     inkscape:current-layer="layer1" />
  <defs
     id="defs1" />
  <g
     inkscape:label="Layer 1"
     inkscape:groupmode="layer"
     id="layer1"
     transform="translate(-18.935361,-86.57975)">
    <rect
       style="fill:#000000;fill-opacity:1;fill-rule:evenodd;stroke:none;stroke-width:1.2934;stroke-opacity:1"
       id="rect2"
       width="163.09052"
       height="166.48366"
       x="19.654766"
       y="86.57975" />
    <g
       id="g11">
      <g
         id="g3"
         transform="rotate(28.929111,83.198946,191.46919)">
        <rect
           style="fill:#3c3c3c;fill-opacity:1;fill-rule:evenodd;stroke:none;stroke-width:2.02408;stroke-opacity:1"
           id="rect3"
           width="7.1659055"
           height="67.545296"
           x="85.735588"
           y="120.75848"
           ry="4.4254222"
           rx="3.5829527" />
        <path
           style="fill:#3c3c3c;fill-opacity:1;fill-rule:evenodd;stroke:none;stroke-width:2.46;stroke-opacity:1"
           d="m 85.619534,124.95179 c 0,0 1.584913,-18.89694 -17.303226,-18.89694 0,0 -15.026485,-0.15385 -15.026485,18.85693 0,0 -4.175057,3.11051 -7.285569,0 0,0 0.569185,-26.370175 22.198218,-26.370175 0,0 24.81647,-1.93523 24.81647,26.410185"
           id="path3"
           sodipodi:nodetypes="cccccc" />
      </g>
      <rect
         style="fill:#000000;fill-opacity:1;fill-rule:evenodd;stroke:none;stroke-width:3.68515;stroke-opacity:1"
         id="rect4"
         width="28.010954"
         height="5.3244934"
         x="122.90328"
         y="124.11673"
         rx="0"
         transform="rotate(9.3664209)" />
      <rect
         style="fill:#000000;fill-opacity:1;fill-rule:evenodd;stroke:none;stroke-width:3.68515;stroke-opacity:1"
         id="rect6"
         width="28.010954"
         height="5.3244934"
         x="118.69138"
         y="146.28223"
         rx="0"
         transform="rotate(9.3664209)" />
      <rect
         style="fill:#000000;fill-opacity:1;fill-rule:evenodd;stroke:none;stroke-width:3.68515;stroke-opacity:1"
         id="rect8"
         width="28.010954"
         height="5.3244934"
         x="113.87238"
         y="165.09657"
         rx="0"
         transform="rotate(9.3664209)" />
      <rect
         style="fill:#000000;fill-opacity:1;fill-rule:evenodd;stroke:none;stroke-width:3.68515;stroke-opacity:1"
         id="rect9"
         width="28.010954"
         height="5.3244934"
         x="123.36071"
         y="103.86992"
         rx="0"
         transform="rotate(9.3664209)" />
      <rect
         style="fill:#000000;fill-opacity:1;fill-rule:evenodd;stroke:none;stroke-width:3.68515;stroke-opacity:1"
         id="rect10"
         width="28.010954"
         height="5.3244934"
         x="42.267807"
         y="147.12592"
         rx="0"
         transform="rotate(-26.018521)" />
      <rect
         style="fill:#000000;fill-opacity:1;fill-rule:evenodd;stroke:none;stroke-width:3.68515;stroke-opacity:1"
         id="rect11"
         width="28.010954"
         height="5.3244934"
         x="96.34304"
         y="-93.315804"
         rx="0"
         transform="rotate(87.645597)" />
    </g>
    <g
       id="g18"
       transform="matrix(-1,0,0,1,260.67549,46.923965)">
      <g
         id="g12"
         transform="rotate(28.929111,83.198946,191.46919)">
        <rect
           style="fill:#3c3c3c;fill-opacity:1;fill-rule:evenodd;stroke:none;stroke-width:2.02408;stroke-opacity:1"
           id="rect12"
           width="7.1659055"
           height="67.545296"
           x="85.735588"
           y="120.75848"
           ry="4.4254222"
           rx="3.5829527" />
        <path
           style="fill:#3c3c3c;fill-opacity:1;fill-rule:evenodd;stroke:none;stroke-width:2.46;stroke-opacity:1"
           d="m 85.619534,124.95179 c 0,0 1.584913,-18.89694 -17.303226,-18.89694 0,0 -15.026485,-0.15385 -15.026485,18.85693 0,0 -4.175057,3.11051 -7.285569,0 0,0 0.569185,-26.370175 22.198218,-26.370175 0,0 24.81647,-1.93523 24.81647,26.410185"
           id="path12"
           sodipodi:nodetypes="cccccc" />
      </g>
      <rect
         style="fill:#000000;fill-opacity:1;fill-rule:evenodd;stroke:none;stroke-width:3.68515;stroke-opacity:1"
         id="rect13"
         width="28.010954"
         height="5.3244934"
         x="122.90328"
         y="124.11673"
         rx="0"
         transform="rotate(9.3664209)" />
      <rect
         style="fill:#000000;fill-opacity:1;fill-rule:evenodd;stroke:none;stroke-width:3.68515;stroke-opacity:1"
         id="rect14"
         width="28.010954"
         height="5.3244934"
         x="118.69138"
         y="146.28223"
         rx="0"
         transform="rotate(9.3664209)" />
      <rect
         style="fill:#000000;fill-opacity:1;fill-rule:evenodd;stroke:none;stroke-width:3.68515;stroke-opacity:1"
         id="rect15"
         width="28.010954"
         height="5.3244934"
         x="113.87238"
         y="165.09657"
         rx="0"
         transform="rotate(9.3664209)" />
      <rect
         style="fill:#000000;fill-opacity:1;fill-rule:evenodd;stroke:none;stroke-width:3.68515;stroke-opacity:1"
         id="rect16"
         width="28.010954"
         height="5.3244934"
         x="123.36071"
         y="103.86992"
         rx="0"
         transform="rotate(9.3664209)" />
      <rect
         style="fill:#000000;fill-opacity:1;fill-rule:evenodd;stroke:none;stroke-width:3.68515;stroke-opacity:1"
         id="rect17"
         width="28.010954"
         height="5.3244934"
         x="42.267807"
         y="147.12592"
         rx="0"
         transform="rotate(-26.018521)" />
      <rect
         style="fill:#000000;fill-opacity:1;fill-rule:evenodd;stroke:none;stroke-width:3.68515;stroke-opacity:1"
         id="rect18"
         width="28.010954"
         height="5.3244934"
         x="96.34304"
         y="-93.315804"
         rx="0"
         transform="rotate(87.645597)" />
    </g>
    <g
       id="g31"
       transform="matrix(-1,0,0,1,151.3843,35.123752)">
      <g
         id="g25"
         transform="rotate(28.929111,83.198946,191.46919)">
        <rect
           style="fill:#3c3c3c;fill-opacity:1;fill-rule:evenodd;stroke:none;stroke-width:2.02408;stroke-opacity:1"
           id="rect25"
           width="7.1659055"
           height="67.545296"
           x="85.735588"
           y="120.75848"
           ry="4.4254222"
           rx="3.5829527" />
        <path
           style="fill:#3c3c3c;fill-opacity:1;fill-rule:evenodd;stroke:none;stroke-width:2.46;stroke-opacity:1"
           d="m 85.619534,124.95179 c 0,0 1.584913,-18.89694 -17.303226,-18.89694 0,0 -15.026485,-0.15385 -15.026485,18.85693 0,0 -4.175057,3.11051 -7.285569,0 0,0 0.569185,-26.370175 22.198218,-26.370175 0,0 24.81647,-1.93523 24.81647,26.410185"
           id="path25"
           sodipodi:nodetypes="cccccc" />
      </g>
      <rect
         style="fill:#000000;fill-opacity:1;fill-rule:evenodd;stroke:none;stroke-width:3.68515;stroke-opacity:1"
         id="rect26"
         width="28.010954"
         height="5.3244934"
         x="122.90328"
         y="124.11673"
         rx="0"
         transform="rotate(9.3664209)" />
      <rect
         style="fill:#000000;fill-opacity:1;fill-rule:evenodd;stroke:none;stroke-width:3.68515;stroke-opacity:1"
         id="rect27"
         width="28.010954"
         height="5.3244934"
         x="118.69138"
         y="146.28223"
         rx="0"
         transform="rotate(9.3664209)" />
      <rect
         style="fill:#000000;fill-opacity:1;fill-rule:evenodd;stroke:none;stroke-width:3.68515;stroke-opacity:1"
         id="rect28"
         width="28.010954"
         height="5.3244934"
         x="113.87238"
         y="165.09657"
         rx="0"
         transform="rotate(9.3664209)" />
      <rect
         style="fill:#000000;fill-opacity:1;fill-rule:evenodd;stroke:none;stroke-width:3.68515;stroke-opacity:1"
         id="rect29"
         width="28.010954"
         height="5.3244934"
         x="123.36071"
         y="103.86992"
         rx="0"
         transform="rotate(9.3664209)" />
      <rect
         style="fill:#000000;fill-opacity:1;fill-rule:evenodd;stroke:none;stroke-width:3.68515;stroke-opacity:1"
         id="rect30"
         width="28.010954"
         height="5.3244934"
         x="42.267807"
         y="147.12592"
         rx="0"
         transform="rotate(-26.018521)" />
      <rect
         style="fill:#000000;fill-opacity:1;fill-rule:evenodd;stroke:none;stroke-width:3.68515;stroke-opacity:1"
         id="rect31"
         width="28.010954"
         height="5.3244934"
         x="96.34304"
         y="-93.315804"
         rx="0"
         transform="rotate(87.645597)" />
    </g>
  </g>
</svg>
